<svg width="266" height="288" viewBox="0 0 266 288" fill="none" xmlns="http://www.w3.org/2000/svg">
<path d="M13.0645 1.46276H234.957C273.564 -1.87609 266.892 12.2099 258.564 21.124C218.195 109.929 240.62 219.27 257.44 263.841C270.63 287.253 255.275 288.06 245.949 285.537H15.6221C-7.16073 291.188 1.79924 273.427 9.12708 263.841C45.8995 149.605 20.4519 53.0974 3.13159 19.1228C-1.6648 -2.67473 4.56445 1.46276 13.0645 1.46276Z" fill="#FFEA64" stroke="black"/>
<path d="M152.406 236.529C152.463 236.537 152.515 236.566 152.552 236.612C152.589 236.657 152.61 236.715 152.609 236.776C152.522 237.104 152.473 237.443 152.462 237.784V237.966C152.436 238.351 152.542 238.732 152.76 239.041C152.978 239.35 153.293 239.566 153.649 239.65C155.163 239.829 156.079 240.063 156.396 240.352C156.756 240.558 157.072 240.839 157.324 241.178C157.566 241.579 157.716 242.035 157.76 242.508C157.764 242.507 157.769 242.507 157.773 242.508C157.777 242.51 157.781 242.512 157.784 242.515C157.787 242.518 157.789 242.522 157.79 242.527C157.792 242.531 157.792 242.536 157.791 242.54V243.044C157.728 243.199 157.689 243.364 157.674 243.532C157.621 243.595 157.55 243.639 157.471 243.656C157.386 243.621 157.314 243.557 157.269 243.473C157.306 243.116 157.324 242.891 157.324 242.798C157.324 241.368 156.437 240.52 154.663 240.256C154.076 240.227 153.498 240.093 152.954 239.859C152.651 239.638 152.406 239.341 152.239 238.995C152.073 238.648 151.991 238.263 152.001 237.875C152.058 236.978 152.193 236.529 152.406 236.529ZM154.404 235.001H156.564C156.736 235.061 156.822 235.153 156.822 235.274V235.339C156.822 235.339 156.772 235.414 156.675 235.494H154.632C154.265 235.495 153.904 235.583 153.574 235.752C153.244 235.921 152.954 236.166 152.726 236.47H152.64C152.612 236.475 152.584 236.472 152.557 236.463C152.531 236.454 152.506 236.438 152.487 236.417C152.467 236.396 152.452 236.371 152.443 236.343C152.435 236.315 152.433 236.285 152.437 236.255C152.484 235.973 152.831 235.646 153.476 235.274C153.768 235.167 154.069 235.087 154.374 235.033C154.373 235.028 154.373 235.024 154.374 235.019C154.375 235.015 154.377 235.011 154.38 235.008C154.383 235.005 154.387 235.002 154.391 235.001C154.395 235 154.4 235 154.404 235.001ZM157.299 243.752C157.327 243.748 157.355 243.75 157.381 243.759C157.408 243.768 157.432 243.784 157.452 243.805C157.472 243.826 157.486 243.851 157.495 243.879C157.504 243.908 157.506 243.937 157.502 243.967V244.058C157.218 244.523 156.821 244.899 156.353 245.146C155.885 245.394 155.362 245.503 154.84 245.463H152.837C152.611 245.463 152.476 245.402 152.432 245.28V245.221C152.432 245.057 152.528 244.975 152.721 244.975H155.154C155.566 244.971 155.971 244.857 156.33 244.643C156.689 244.429 156.991 244.123 157.208 243.752H157.299Z" fill="black"/>
<path d="M164.063 235.093H164.236L168.834 239.919L173.433 235.093H173.519C173.546 235.089 173.575 235.091 173.601 235.1C173.628 235.109 173.652 235.125 173.672 235.146C173.692 235.167 173.706 235.192 173.715 235.22C173.724 235.248 173.726 235.278 173.722 235.308C173.722 235.426 173.472 235.72 172.971 236.192C170.304 239.052 168.952 240.482 168.915 240.482L168.859 240.514C168.748 240.514 168.111 239.862 166.948 238.557C165.894 237.54 164.891 236.466 163.942 235.34C163.962 235.19 164.002 235.107 164.063 235.093ZM164.17 235.828C164.255 235.862 164.327 235.926 164.373 236.01V245.223C164.378 245.256 164.375 245.291 164.366 245.323C164.356 245.356 164.339 245.385 164.316 245.409C164.293 245.434 164.265 245.452 164.234 245.462C164.204 245.472 164.171 245.475 164.139 245.469C164.018 245.469 163.95 245.387 163.937 245.223V236.01C164.021 235.889 164.099 235.828 164.17 235.828ZM173.544 235.828C173.602 235.828 173.679 235.91 173.777 236.074V245.158C173.754 245.362 173.668 245.464 173.519 245.464C173.37 245.464 173.303 245.382 173.316 245.217V236.074C173.326 235.91 173.404 235.828 173.549 235.828H173.544Z" fill="black"/>
<path d="M164.063 236.342H164.236L168.834 241.168L173.433 236.342H173.519C173.546 236.338 173.575 236.34 173.601 236.349C173.628 236.358 173.652 236.374 173.672 236.395C173.692 236.416 173.706 236.441 173.715 236.469C173.724 236.498 173.726 236.527 173.722 236.557C173.722 236.675 173.472 236.97 172.971 237.441C170.304 240.301 168.952 241.731 168.915 241.731L168.859 241.764C168.748 241.764 168.111 241.111 166.948 239.806C165.894 238.789 164.891 237.715 163.942 236.589C163.962 236.439 164.002 236.356 164.063 236.342ZM164.17 237.077C164.255 237.111 164.327 237.175 164.373 237.259V246.472C164.378 246.505 164.375 246.54 164.366 246.572C164.356 246.605 164.339 246.634 164.316 246.658C164.293 246.683 164.265 246.701 164.234 246.711C164.204 246.721 164.171 246.724 164.139 246.718C164.018 246.718 163.95 246.636 163.937 246.472V237.259C164.021 237.138 164.099 237.077 164.17 237.077ZM173.544 237.077C173.602 237.077 173.679 237.159 173.777 237.323V246.407C173.754 246.611 173.668 246.713 173.519 246.713C173.37 246.713 173.303 246.631 173.316 246.466V237.323C173.326 237.159 173.404 237.077 173.549 237.077H173.544Z" fill="black"/>
<path d="M176.845 235.061C176.933 235.061 177.01 235.143 177.078 235.308C177.058 236.705 177.047 237.746 177.047 238.429V245.314C177.028 245.362 176.995 245.402 176.954 245.43C176.912 245.458 176.863 245.471 176.814 245.469C176.733 245.448 176.655 245.357 176.581 245.196V235.34C176.602 235.275 176.636 235.216 176.682 235.168C176.728 235.119 176.783 235.083 176.845 235.061ZM177.58 235.034H179.78C179.995 235.113 180.218 235.163 180.444 235.184C181.085 235.381 181.629 235.83 181.965 236.439C182.125 236.849 182.223 237.284 182.254 237.726V237.849C182.235 238.439 182.059 239.012 181.747 239.501C181.481 239.823 181.152 240.08 180.782 240.254C180.413 240.428 180.012 240.515 179.608 240.509H177.61C177.438 240.481 177.352 240.398 177.352 240.263C177.384 240.172 177.445 240.096 177.524 240.048H179.552C180.047 240.106 180.544 239.97 180.95 239.665C181.355 239.361 181.641 238.909 181.752 238.396C181.79 238.195 181.809 237.99 181.808 237.785C181.843 237.309 181.72 236.835 181.461 236.444C181.202 236.053 180.823 235.769 180.389 235.64C180.102 235.572 179.81 235.538 179.517 235.538H177.58C177.547 235.544 177.513 235.54 177.482 235.529C177.45 235.517 177.422 235.497 177.399 235.471C177.377 235.445 177.361 235.414 177.352 235.38C177.344 235.346 177.344 235.31 177.352 235.275V235.249C177.409 235.158 177.488 235.084 177.58 235.034Z" fill="black"/>
<path d="M185.393 235.061H185.565C185.604 235.078 185.636 235.108 185.658 235.147C185.679 235.186 185.687 235.231 185.682 235.275V245.008H191.091C191.123 245.002 191.156 245.005 191.186 245.015C191.217 245.026 191.245 245.044 191.268 245.068C191.291 245.092 191.308 245.121 191.317 245.154C191.327 245.186 191.33 245.221 191.324 245.254C191.308 245.314 191.275 245.368 191.228 245.406C191.182 245.445 191.125 245.467 191.066 245.469H185.534C185.396 245.469 185.289 245.367 185.215 245.163V235.307C185.296 235.143 185.355 235.061 185.393 235.061Z" fill="black"/>
<path d="M194.346 235.001H200.598C200.753 235.072 200.831 235.164 200.831 235.274C200.831 235.385 200.753 235.457 200.598 235.489H194.346C194.314 235.495 194.282 235.492 194.251 235.482C194.22 235.471 194.193 235.453 194.17 235.429C194.147 235.405 194.13 235.375 194.12 235.343C194.11 235.31 194.108 235.276 194.113 235.242C194.116 235.156 194.194 235.076 194.346 235.001ZM194.432 239.988H200.516C200.581 239.983 200.645 239.997 200.702 240.029C200.758 240.062 200.805 240.111 200.836 240.17V240.203C200.836 240.385 200.701 240.476 200.43 240.476H194.524C194.253 240.476 194.118 240.385 194.118 240.203V240.17C194.149 240.112 194.195 240.063 194.25 240.031C194.306 239.999 194.369 239.984 194.432 239.988ZM194.377 244.975H200.567C200.74 244.975 200.826 245.057 200.826 245.222C200.826 245.386 200.711 245.468 200.481 245.468H194.463C194.233 245.468 194.118 245.377 194.118 245.195C194.121 245.162 194.131 245.131 194.145 245.102C194.16 245.074 194.18 245.048 194.204 245.028C194.228 245.007 194.256 244.992 194.285 244.983C194.315 244.974 194.346 244.971 194.377 244.975Z" fill="black"/>
<path d="M194.347 235.939H200.598C200.753 236.011 200.831 236.102 200.831 236.213C200.831 236.324 200.753 236.395 200.598 236.427H194.347C194.315 236.433 194.282 236.43 194.251 236.42C194.221 236.41 194.193 236.392 194.17 236.367C194.147 236.343 194.13 236.314 194.12 236.281C194.11 236.249 194.108 236.214 194.113 236.181C194.117 236.109 194.194 236.029 194.347 235.939ZM194.433 240.926H200.517C200.581 240.921 200.645 240.936 200.702 240.968C200.759 241 200.805 241.049 200.836 241.109V241.141C200.836 241.323 200.701 241.414 200.431 241.414H194.524C194.254 241.414 194.118 241.323 194.118 241.141V241.114C194.148 241.054 194.194 241.005 194.25 240.972C194.305 240.938 194.369 240.923 194.433 240.926ZM194.377 245.914H200.567C200.74 245.914 200.826 245.996 200.826 246.16C200.826 246.325 200.711 246.407 200.481 246.407H194.463C194.233 246.407 194.118 246.316 194.118 246.133C194.122 246.101 194.131 246.069 194.146 246.041C194.16 246.012 194.18 245.987 194.204 245.966C194.228 245.946 194.256 245.931 194.286 245.922C194.315 245.913 194.346 245.91 194.377 245.914Z" fill="black"/>
<path d="M152.407 251.153C152.464 251.161 152.516 251.19 152.553 251.236C152.59 251.281 152.611 251.339 152.61 251.4C152.523 251.728 152.474 252.067 152.463 252.408V252.59C152.437 252.975 152.543 253.356 152.761 253.665C152.979 253.974 153.294 254.19 153.65 254.274C155.164 254.453 156.08 254.687 156.398 254.976C156.757 255.182 157.073 255.463 157.325 255.802C157.57 256.208 157.719 256.669 157.761 257.148C157.766 257.147 157.77 257.147 157.774 257.148C157.778 257.15 157.782 257.152 157.785 257.155C157.788 257.159 157.79 257.162 157.791 257.167C157.793 257.171 157.793 257.176 157.792 257.18V257.668C157.729 257.823 157.69 257.988 157.675 258.156C157.622 258.219 157.551 258.263 157.472 258.28C157.387 258.245 157.315 258.181 157.27 258.097C157.307 257.74 157.325 257.515 157.325 257.422C157.325 255.992 156.438 255.144 154.664 254.88C154.077 254.851 153.499 254.717 152.955 254.483C152.652 254.262 152.407 253.965 152.24 253.619C152.074 253.272 151.992 252.887 152.002 252.499C152.059 251.602 152.194 251.153 152.407 251.153ZM154.405 249.625H156.565C156.737 249.685 156.823 249.777 156.823 249.898V249.957C156.823 249.957 156.773 250.032 156.676 250.113H154.633C154.266 250.113 153.905 250.201 153.575 250.37C153.245 250.539 152.955 250.785 152.727 251.089H152.641C152.613 251.093 152.585 251.091 152.558 251.082C152.532 251.072 152.507 251.057 152.488 251.036C152.468 251.015 152.453 250.989 152.444 250.961C152.436 250.933 152.433 250.903 152.438 250.874C152.485 250.595 152.832 250.268 153.477 249.893C153.769 249.784 154.069 249.702 154.375 249.646C154.375 249.643 154.376 249.639 154.378 249.636C154.38 249.633 154.383 249.631 154.385 249.629C154.388 249.627 154.391 249.625 154.395 249.624C154.398 249.624 154.402 249.624 154.405 249.625ZM157.3 258.376C157.328 258.372 157.356 258.374 157.382 258.383C157.409 258.392 157.433 258.408 157.453 258.429C157.473 258.45 157.488 258.475 157.496 258.503C157.505 258.532 157.507 258.561 157.503 258.591V258.682C157.219 259.147 156.822 259.523 156.354 259.77C155.886 260.018 155.363 260.127 154.841 260.087H152.838C152.612 260.087 152.477 260.026 152.433 259.904V259.845C152.433 259.681 152.529 259.599 152.722 259.599H155.155C155.567 259.595 155.972 259.481 156.331 259.267C156.69 259.053 156.992 258.747 157.209 258.376H157.3Z" fill="black"/>
<path d="M165.229 250.112H165.574C166.451 250.166 167.298 250.462 168.033 250.97L168.089 251.126C168.089 251.247 168.011 251.319 167.856 251.34C167.14 250.854 166.313 250.582 165.463 250.552H165.346C163.784 250.552 162.547 251.355 161.635 252.96C161.307 253.632 161.134 254.376 161.128 255.131C161.128 255.925 161.325 256.705 161.701 257.392C162.077 258.08 162.617 258.65 163.267 259.046C163.86 259.427 164.536 259.642 165.229 259.668H165.518C166.351 259.643 167.161 259.378 167.861 258.901H167.891C167.891 258.901 167.962 258.955 168.038 259.057V259.132C168.038 259.382 167.497 259.668 166.416 259.99C166.095 260.079 165.764 260.121 165.432 260.113H165.376C163.605 260.113 162.216 259.219 161.209 257.432C160.88 256.737 160.707 255.972 160.702 255.196V255.105C160.702 253.317 161.503 251.887 163.105 250.815C163.758 250.422 164.482 250.183 165.229 250.112Z" fill="black"/>
<path d="M160.302 235.328H160.449C160.495 235.353 160.534 235.392 160.56 235.439C160.586 235.487 160.598 235.541 160.596 235.596V246.444C160.598 246.499 160.586 246.554 160.56 246.601C160.534 246.649 160.495 246.688 160.449 246.712H160.302C160.268 246.712 160.21 246.634 160.129 246.477V235.628C160.13 235.567 160.147 235.506 160.177 235.454C160.207 235.401 160.25 235.358 160.302 235.328Z" fill="black"/>
<path d="M161.29 235.328H161.437C161.484 235.353 161.522 235.392 161.548 235.439C161.574 235.487 161.587 235.541 161.584 235.596V246.444C161.587 246.499 161.574 246.554 161.548 246.601C161.522 246.649 161.484 246.688 161.437 246.712H161.29C161.256 246.712 161.199 246.634 161.118 246.477V235.628C161.119 235.567 161.135 235.506 161.165 235.454C161.196 235.401 161.239 235.358 161.29 235.328Z" fill="black"/>
<path d="M171.238 249.748H171.385C171.431 249.773 171.47 249.811 171.496 249.859C171.522 249.907 171.534 249.961 171.532 250.016V260.864C171.534 260.919 171.522 260.974 171.496 261.021C171.47 261.069 171.431 261.108 171.385 261.132H171.238C171.204 261.132 171.146 261.054 171.065 260.896V250.048C171.066 249.987 171.083 249.926 171.113 249.874C171.143 249.821 171.186 249.777 171.238 249.748Z" fill="black"/>
<path d="M172.221 249.748H172.368C172.414 249.773 172.453 249.811 172.479 249.859C172.505 249.907 172.518 249.961 172.515 250.016V260.864C172.518 260.919 172.505 260.974 172.479 261.021C172.453 261.069 172.414 261.108 172.368 261.132H172.221C172.187 261.132 172.13 261.054 172.049 260.896V250.048C172.05 249.987 172.066 249.926 172.096 249.874C172.127 249.821 172.17 249.777 172.221 249.748Z" fill="black"/>
<path d="M174.852 249.624H181.099C181.254 249.696 181.332 249.787 181.332 249.898C181.332 250.008 181.254 250.08 181.099 250.112H174.852C174.821 250.118 174.788 250.115 174.757 250.105C174.727 250.094 174.699 250.076 174.676 250.052C174.653 250.028 174.636 249.998 174.626 249.966C174.616 249.933 174.614 249.899 174.619 249.865C174.619 249.78 174.697 249.699 174.852 249.624ZM174.939 254.611H181.023C181.087 254.606 181.151 254.62 181.208 254.652C181.264 254.685 181.311 254.734 181.342 254.793V254.842C181.342 255.024 181.207 255.115 180.936 255.115H175.025C174.754 255.115 174.619 255.024 174.619 254.842V254.809C174.648 254.747 174.694 254.695 174.751 254.659C174.807 254.624 174.873 254.607 174.939 254.611ZM174.883 259.598H181.068C181.241 259.598 181.327 259.68 181.327 259.845C181.327 260.009 181.212 260.091 180.982 260.091H174.964C174.734 260.091 174.619 260 174.619 259.818C174.622 259.785 174.632 259.754 174.646 259.725C174.661 259.697 174.681 259.671 174.705 259.651C174.729 259.63 174.757 259.615 174.786 259.606C174.816 259.597 174.847 259.594 174.878 259.598H174.883Z" fill="black"/>
<path d="M174.852 250.67H181.098C181.254 250.741 181.332 250.833 181.332 250.943C181.332 251.054 181.254 251.126 181.098 251.158H174.852C174.82 251.163 174.788 251.161 174.757 251.151C174.726 251.14 174.698 251.122 174.676 251.098C174.653 251.074 174.636 251.044 174.626 251.012C174.616 250.979 174.614 250.945 174.619 250.911C174.619 250.825 174.697 250.745 174.852 250.67ZM174.938 255.657H181.022C181.087 255.652 181.151 255.666 181.207 255.698C181.264 255.731 181.311 255.78 181.342 255.839V255.871C181.342 256.054 181.207 256.145 180.936 256.145H175.025C174.754 256.145 174.619 256.054 174.619 255.871V255.839C174.65 255.78 174.697 255.731 174.753 255.698C174.81 255.666 174.874 255.652 174.938 255.657ZM174.883 260.644H181.068C181.24 260.644 181.327 260.726 181.327 260.891C181.327 261.055 181.212 261.137 180.982 261.137H174.964C174.734 261.137 174.619 261.046 174.619 260.864C174.622 260.831 174.631 260.8 174.646 260.771C174.661 260.742 174.681 260.717 174.705 260.697C174.729 260.676 174.757 260.661 174.786 260.652C174.816 260.643 174.847 260.64 174.878 260.644H174.883Z" fill="black"/>
<path d="M184.069 249.684C184.444 250.002 184.766 250.385 185.022 250.815L191.766 259.749C191.786 259.786 191.796 259.829 191.796 259.872C191.735 260.017 191.826 260.017 191.735 260.017C191.644 260.017 191.375 259.642 190.909 258.977L184.272 250.552V259.937C184.253 259.984 184.22 260.025 184.178 260.053C184.137 260.08 184.088 260.094 184.039 260.092C183.958 260.071 183.88 259.979 183.806 259.819V249.962C183.824 249.902 183.854 249.846 183.894 249.799C183.935 249.752 183.984 249.714 184.039 249.689L184.069 249.684ZM191.619 249.716C191.67 249.729 191.715 249.761 191.747 249.806C191.778 249.851 191.794 249.907 191.791 249.962V258.682C191.791 258.682 191.74 258.757 191.644 258.837H191.588C191.433 258.837 191.355 258.735 191.355 258.532V250.016C191.382 249.816 191.472 249.716 191.624 249.716H191.619Z" fill="black"/>
<path d="M199.097 250.112H199.442C200.318 250.166 201.166 250.462 201.9 250.97L201.956 251.126C201.956 251.247 201.878 251.319 201.723 251.34C201.007 250.854 200.18 250.582 199.33 250.552H199.213C197.652 250.552 196.408 251.347 195.482 252.938C195.154 253.61 194.981 254.354 194.975 255.11C194.972 255.909 195.17 256.694 195.547 257.385C195.925 258.076 196.469 258.65 197.125 259.046C197.72 259.429 198.4 259.643 199.097 259.668H199.386C200.218 259.643 201.028 259.378 201.728 258.901H201.759C201.759 258.901 201.829 258.955 201.906 259.057V259.132C201.906 259.382 201.365 259.668 200.283 259.99C199.962 260.079 199.631 260.121 199.3 260.113H199.244C197.473 260.113 196.083 259.219 195.076 257.432C194.748 256.737 194.574 255.972 194.569 255.196V255.105C194.569 253.317 195.37 251.887 196.972 250.815C197.625 250.422 198.349 250.183 199.097 250.112Z" fill="black"/>
<path d="M152.407 237.779C152.464 237.787 152.516 237.816 152.553 237.862C152.59 237.907 152.611 237.965 152.61 238.026C152.523 238.354 152.474 238.693 152.463 239.034V239.216C152.437 239.6 152.543 239.982 152.761 240.291C152.979 240.6 153.294 240.816 153.65 240.9C155.164 241.079 156.08 241.313 156.397 241.602C156.757 241.808 157.073 242.089 157.325 242.428C157.57 242.834 157.719 243.295 157.761 243.774C157.765 243.773 157.77 243.773 157.774 243.774C157.778 243.776 157.782 243.778 157.785 243.781C157.788 243.784 157.79 243.788 157.791 243.793C157.793 243.797 157.793 243.802 157.792 243.806V244.294C157.729 244.449 157.69 244.614 157.675 244.782C157.622 244.845 157.551 244.889 157.472 244.906C157.387 244.871 157.315 244.807 157.269 244.723C157.307 244.366 157.325 244.14 157.325 244.048C157.325 242.618 156.438 241.77 154.664 241.506C154.077 241.477 153.499 241.343 152.955 241.109C152.652 240.888 152.407 240.591 152.24 240.245C152.074 239.898 151.992 239.513 152.002 239.125C152.059 238.227 152.194 237.779 152.407 237.779ZM154.405 236.251H156.565C156.737 236.311 156.823 236.402 156.823 236.524V236.61C156.823 236.61 156.773 236.685 156.676 236.765H154.633C154.268 236.763 153.907 236.848 153.577 237.013C153.247 237.179 152.957 237.42 152.727 237.72H152.641C152.613 237.724 152.585 237.722 152.558 237.713C152.532 237.704 152.507 237.688 152.488 237.667C152.468 237.646 152.453 237.621 152.444 237.593C152.436 237.564 152.433 237.535 152.438 237.505C152.485 237.223 152.832 236.896 153.477 236.524C153.769 236.415 154.069 236.333 154.375 236.277C154.374 236.273 154.375 236.269 154.377 236.266C154.378 236.262 154.381 236.259 154.384 236.256C154.387 236.254 154.39 236.252 154.394 236.251C154.397 236.25 154.401 236.25 154.405 236.251ZM157.3 245.002C157.328 244.997 157.356 245 157.382 245.009C157.409 245.018 157.433 245.034 157.453 245.055C157.473 245.076 157.487 245.101 157.496 245.129C157.505 245.157 157.507 245.187 157.503 245.217V245.308C157.219 245.773 156.822 246.149 156.354 246.396C155.886 246.644 155.363 246.753 154.841 246.713H152.838C152.612 246.713 152.477 246.652 152.433 246.53V246.471C152.433 246.307 152.529 246.225 152.722 246.225H155.155C155.567 246.221 155.972 246.107 156.331 245.893C156.69 245.679 156.992 245.373 157.209 245.002H157.3Z" fill="black"/>
<path d="M152.407 252.198C152.464 252.206 152.515 252.235 152.553 252.281C152.59 252.326 152.61 252.385 152.61 252.445C152.523 252.773 152.474 253.112 152.463 253.453V253.635C152.437 254.02 152.543 254.401 152.761 254.71C152.978 255.019 153.294 255.235 153.649 255.319C155.164 255.498 156.079 255.732 156.397 256.022C156.757 256.227 157.072 256.508 157.325 256.847C157.569 257.253 157.719 257.714 157.761 258.193C157.765 258.192 157.77 258.192 157.774 258.194C157.778 258.195 157.782 258.197 157.785 258.201C157.788 258.204 157.79 258.208 157.791 258.212C157.792 258.216 157.792 258.221 157.791 258.226V258.714C157.729 258.869 157.689 259.033 157.675 259.201C157.622 259.265 157.55 259.308 157.472 259.325C157.387 259.291 157.315 259.226 157.269 259.143C157.306 258.785 157.325 258.56 157.325 258.467C157.325 257.037 156.438 256.19 154.663 255.925C154.077 255.896 153.499 255.762 152.955 255.528C152.652 255.308 152.406 255.011 152.24 254.664C152.074 254.318 151.992 253.933 152.002 253.544C152.059 252.647 152.194 252.198 152.407 252.198ZM154.405 250.67H156.565C156.737 250.731 156.823 250.822 156.823 250.943V251.002C156.823 251.002 156.772 251.077 156.676 251.158H154.633C154.264 251.162 153.901 251.254 153.571 251.428C153.241 251.601 152.952 251.852 152.727 252.161H152.64C152.613 252.165 152.584 252.163 152.558 252.154C152.531 252.145 152.507 252.129 152.487 252.108C152.468 252.087 152.453 252.061 152.444 252.033C152.435 252.005 152.433 251.975 152.438 251.946C152.485 251.667 152.831 251.34 153.477 250.965C153.769 250.856 154.069 250.774 154.374 250.718C154.371 250.716 154.369 250.713 154.367 250.71C154.365 250.707 154.363 250.703 154.363 250.7C154.362 250.696 154.362 250.692 154.363 250.688C154.363 250.685 154.365 250.681 154.367 250.678C154.369 250.675 154.371 250.672 154.374 250.67C154.377 250.668 154.381 250.666 154.384 250.666C154.388 250.665 154.391 250.665 154.395 250.666C154.398 250.666 154.402 250.668 154.405 250.67ZM157.3 259.421C157.327 259.417 157.356 259.419 157.382 259.428C157.409 259.437 157.433 259.453 157.453 259.474C157.472 259.495 157.487 259.521 157.496 259.549C157.505 259.577 157.507 259.607 157.502 259.636V259.727C157.219 260.192 156.822 260.568 156.354 260.816C155.885 261.063 155.363 261.172 154.841 261.132H152.838C152.612 261.132 152.476 261.071 152.432 260.95V260.891C152.432 260.726 152.529 260.644 152.721 260.644H155.155C155.567 260.64 155.972 260.526 156.331 260.312C156.69 260.099 156.992 259.792 157.208 259.421H157.3Z" fill="black"/>
<path d="M165.23 251.158H165.574C166.451 251.212 167.298 251.508 168.033 252.016L168.089 252.172C168.089 252.293 168.011 252.365 167.856 252.386C167.137 251.91 166.311 251.647 165.463 251.625H165.346C163.785 251.625 162.548 252.417 161.635 254C161.307 254.672 161.134 255.416 161.128 256.172C161.128 256.966 161.325 257.746 161.701 258.433C162.077 259.12 162.617 259.691 163.267 260.087C163.872 260.47 164.56 260.681 165.265 260.698H165.554C166.386 260.673 167.196 260.408 167.896 259.931H167.927C167.927 259.931 167.998 259.985 168.074 260.087V260.146C168.074 260.396 167.533 260.682 166.451 261.004C166.131 261.093 165.8 261.135 165.468 261.127H165.412C163.641 261.127 162.252 260.233 161.245 258.446C160.916 257.751 160.743 256.986 160.738 256.21V256.118C160.738 254.331 161.539 252.901 163.141 251.828C163.785 251.453 164.497 251.224 165.23 251.158Z" fill="black"/>
<path d="M199.097 251.158H199.442C200.318 251.212 201.166 251.508 201.901 252.016L201.957 252.172C201.957 252.293 201.879 252.365 201.723 252.386C201.005 251.91 200.178 251.647 199.33 251.625H199.214C197.652 251.625 196.408 252.42 195.482 254.011C195.155 254.683 194.981 255.427 194.975 256.183C194.977 256.977 195.177 257.756 195.554 258.442C195.931 259.129 196.473 259.698 197.125 260.092C197.729 260.476 198.418 260.687 199.122 260.703H199.411C200.244 260.678 201.054 260.413 201.754 259.936H201.784C201.784 259.936 201.855 259.99 201.931 260.092V260.151C201.931 260.401 201.39 260.687 200.309 261.009C199.988 261.098 199.657 261.14 199.325 261.132H199.27C197.498 261.132 196.109 260.238 195.102 258.451C194.774 257.756 194.6 256.991 194.595 256.215V256.124C194.595 254.336 195.396 252.906 196.998 251.834C197.645 251.455 198.36 251.224 199.097 251.158Z" fill="black"/>
<path d="M205.161 249.625H211.412C211.568 249.696 211.645 249.788 211.645 249.898C211.645 250.009 211.568 250.081 211.412 250.113H205.161C205.129 250.119 205.096 250.116 205.066 250.106C205.035 250.095 205.007 250.077 204.984 250.053C204.961 250.029 204.944 249.999 204.935 249.967C204.925 249.934 204.922 249.9 204.928 249.866C204.931 249.781 205.009 249.7 205.161 249.625ZM205.247 254.612H211.331C211.395 254.607 211.459 254.621 211.516 254.653C211.573 254.686 211.619 254.735 211.65 254.794V254.843C211.65 255.025 211.515 255.116 211.245 255.116H205.333C205.063 255.116 204.928 255.025 204.928 254.843V254.81C204.956 254.75 205 254.698 205.055 254.663C205.109 254.628 205.173 254.61 205.237 254.612H205.247ZM205.191 259.599H211.382C211.554 259.599 211.64 259.681 211.64 259.846C211.64 260.01 211.525 260.092 211.295 260.092H205.277C205.048 260.092 204.933 260.001 204.933 259.819C204.936 259.786 204.945 259.755 204.96 259.726C204.974 259.698 204.994 259.672 205.018 259.652C205.043 259.631 205.07 259.616 205.1 259.607C205.129 259.598 205.161 259.595 205.191 259.599Z" fill="black"/>
<path d="M205.161 250.67H211.412C211.568 250.741 211.645 250.833 211.645 250.943C211.645 251.054 211.568 251.126 211.412 251.158H205.161C205.129 251.163 205.096 251.161 205.066 251.151C205.035 251.14 205.007 251.122 204.984 251.098C204.961 251.074 204.944 251.044 204.935 251.012C204.925 250.979 204.922 250.945 204.928 250.911C204.931 250.825 205.009 250.745 205.161 250.67ZM205.247 255.657H211.331C211.395 255.652 211.459 255.666 211.516 255.698C211.573 255.731 211.619 255.78 211.65 255.839V255.871C211.65 256.054 211.515 256.145 211.245 256.145H205.333C205.063 256.145 204.928 256.054 204.928 255.871V255.839C204.958 255.781 205.003 255.734 205.057 255.701C205.112 255.669 205.174 255.654 205.237 255.657H205.247ZM205.191 260.644H211.382C211.554 260.644 211.64 260.726 211.64 260.891C211.64 261.055 211.525 261.137 211.295 261.137H205.277C205.048 261.137 204.933 261.046 204.933 260.864C204.936 260.831 204.945 260.8 204.96 260.771C204.974 260.743 204.994 260.717 205.018 260.697C205.043 260.676 205.07 260.661 205.1 260.652C205.129 260.643 205.161 260.64 205.191 260.644Z" fill="black"/>
<path d="M228.002 256.451C227.686 256.273 227.336 256.174 226.979 256.159C226.622 256.144 226.266 256.214 225.938 256.365C223.743 255.292 222.46 257.437 222.46 257.437C221.684 256.949 220.777 258.091 220.777 258.091C220.777 258.091 219.879 259.454 220.777 260.451C221.157 260.85 221.428 261.35 221.563 261.899C221.639 261.899 221.74 261.936 221.811 261.963C222.399 261.904 222.607 261.963 223.205 261.851C223.753 261.904 224.057 261.733 224.838 261.314C225 261.225 225.17 261.151 225.345 261.094C225.608 260.933 225.855 260.743 226.08 260.526C226.207 260.361 226.348 260.209 226.501 260.07C226.735 259.85 226.933 259.591 227.089 259.303C227.241 259.079 227.382 258.847 227.51 258.606C227.544 258.459 227.59 258.316 227.647 258.177C227.799 257.748 227.865 257.432 228.022 257.105C228.037 256.887 228.03 256.667 228.002 256.451Z" fill="#EB9237" stroke="black" stroke-width="0.75" stroke-miterlimit="10"/>
<path d="M223.038 258.06C223.038 258.06 224.959 257.234 225.572 257.266C226.186 257.298 224.635 256.875 224.635 256.875C224.635 256.875 224.584 255.293 225.05 255.046C225.517 254.8 224.503 254.703 224.503 254.703C224.503 254.703 223.692 255.947 223.864 256.848C223.859 256.832 222.956 257.738 223.038 258.06Z" fill="#847F29" stroke="black" stroke-width="0.75" stroke-miterlimit="10"/>
<path d="M225.129 261.136C227.819 259.508 228.789 255.95 227.296 253.189C225.802 250.428 222.41 249.51 219.72 251.139C217.029 252.767 216.059 256.325 217.553 259.086C219.047 261.846 222.438 262.764 225.129 261.136Z" stroke="black" stroke-width="0.75" stroke-miterlimit="10"/>
<path d="M186.27 236.31H186.442C186.481 236.327 186.514 236.357 186.535 236.396C186.556 236.435 186.564 236.48 186.559 236.524V246.262H191.969C192 246.257 192.033 246.259 192.064 246.269C192.094 246.28 192.122 246.298 192.145 246.322C192.168 246.346 192.185 246.376 192.195 246.408C192.205 246.441 192.207 246.475 192.202 246.509C192.186 246.569 192.152 246.622 192.106 246.661C192.059 246.699 192.002 246.721 191.943 246.723H186.412C186.273 246.723 186.167 246.621 186.093 246.418V236.556C186.174 236.392 186.233 236.31 186.27 236.31Z" fill="black"/>
<path d="M177.544 236.31C177.632 236.31 177.71 236.393 177.778 236.557C177.757 237.955 177.747 238.995 177.747 239.678V246.563C177.728 246.611 177.695 246.652 177.653 246.679C177.612 246.707 177.563 246.721 177.514 246.719C177.433 246.697 177.355 246.606 177.281 246.445V236.611C177.299 236.55 177.329 236.495 177.369 236.447C177.41 236.4 177.459 236.363 177.514 236.337L177.544 236.31ZM178.269 236.278H180.47C180.684 236.359 180.907 236.411 181.134 236.434C181.774 236.63 182.319 237.08 182.655 237.689C182.81 238.1 182.902 238.534 182.929 238.976V239.099C182.909 239.689 182.734 240.261 182.422 240.751C182.156 241.071 181.829 241.327 181.461 241.501C181.094 241.675 180.695 241.763 180.292 241.759H178.295C178.122 241.727 178.036 241.644 178.036 241.512C178.068 241.422 178.129 241.346 178.209 241.298H180.237C180.729 241.351 181.222 241.213 181.625 240.909C182.027 240.605 182.311 240.156 182.422 239.646C182.459 239.445 182.478 239.24 182.477 239.035C182.512 238.559 182.389 238.085 182.13 237.694C181.871 237.303 181.492 237.018 181.058 236.89C180.774 236.815 180.483 236.774 180.191 236.766H178.269C178.238 236.772 178.205 236.769 178.174 236.759C178.144 236.748 178.116 236.73 178.093 236.706C178.07 236.682 178.053 236.653 178.043 236.62C178.033 236.588 178.031 236.553 178.036 236.52V236.498C178.095 236.407 178.176 236.333 178.269 236.284V236.278Z" fill="black"/>
<path d="M185.124 250.944C185.499 251.263 185.821 251.646 186.077 252.076L192.82 261.01C192.841 261.047 192.851 261.09 192.851 261.133C192.786 261.276 192.709 261.347 192.617 261.347C192.526 261.347 192.237 261.001 191.75 260.307L185.327 251.829V261.192C185.307 261.24 185.275 261.28 185.233 261.308C185.191 261.336 185.143 261.349 185.094 261.347C185.012 261.326 184.935 261.235 184.86 261.074V251.218C184.879 251.157 184.909 251.102 184.949 251.054C184.989 251.007 185.038 250.97 185.094 250.944H185.124ZM192.673 250.977C192.725 250.99 192.77 251.022 192.801 251.067C192.833 251.112 192.848 251.167 192.846 251.223V259.937C192.846 259.937 192.795 260.012 192.699 260.093H192.643C192.487 260.093 192.41 259.991 192.41 259.787V251.25C192.437 251.068 192.525 250.977 192.673 250.977Z" fill="black"/>
</svg>
