<svg width="309" height="366" viewBox="0 0 309 366" fill="none" xmlns="http://www.w3.org/2000/svg">
<rect x="126.5" y="241.5" width="154" height="35" fill="#71513A" stroke="black"/>
<rect x="126.564" y="272.124" width="181" height="33" fill="#20315A" stroke="black"/>
<rect x="65.5645" y="306.124" width="181" height="59" fill="#561353" stroke="black"/>
<path d="M122.564 305.124H307.564V365.124H93.5645V334.124C93.5645 318.108 106.548 305.124 122.564 305.124Z" fill="#8B0084" stroke="black"/>
<circle cx="284.564" cy="289.124" r="11" fill="#F3F6FF" stroke="black"/>
<circle cx="122.5" cy="335.5" r="11.5" fill="#0F0909"/>
<rect x="0.0644531" y="46.624" width="137" height="142" fill="#986115"/>
<path d="M306.991 236.45C310.991 224.85 296.657 223.283 288.991 223.95L204.991 53.95C188.591 8.34995 150.157 -0.0500545 132.991 1.44994H61.9907C44.3907 -1.75006 33.6573 5.11661 30.4906 8.94994C14.8906 28.1499 31.324 43.2832 41.4906 48.4499H119.991C137.991 46.8499 136.157 59.4499 132.991 65.9499C102.991 102.75 120.491 140.95 132.991 155.45L97.4999 189H78.9999L103.991 223.95C98.9906 225.617 89.5906 230.45 91.9906 236.45C94.3906 242.45 100.991 243.283 103.991 242.95H288.991C294.5 242.95 302.991 248.05 306.991 236.45Z" fill="#FF9400" stroke="black"/>
<path d="M97.5645 46.624L10.0645 46.124C-1.93555 59.124 12.0644 185.624 15.5644 187.624C18.3644 189.224 70.0644 189.291 95.5644 189.124C114.764 191.524 126.231 190.124 129.564 189.124C154.364 168.324 135.564 156.124 123.064 152.624H110.064C134.064 129.424 114.064 118.624 101.064 116.124H88.5644C117.764 104.124 102.398 85.4574 91.0644 77.624C114.264 70.824 108.564 50.124 97.5645 46.624Z" fill="#F9D29C" stroke="black"/>
<path d="M122 324L124.694 332.292H133.413L126.359 337.416L129.053 345.708L122 340.584L114.947 345.708L117.641 337.416L110.587 332.292H119.306L122 324Z" fill="#8B0084"/>
</svg>
